<?xml version="1.0" encoding="UTF-8"?>
<svg id="Camada_2" data-name="Camada 2" xmlns="http://www.w3.org/2000/svg" viewBox="0 0 914.63 293.18">
  <defs>
    <style>
      .cls-1 {
        fill: #fa4244;
      }

      .cls-2 {
        fill: #fff;
      }
    </style>
  </defs>
  <g id="Camada_16" data-name="Camada 16">
    <g>
      <rect class="cls-1" width="488.88" height="293.18"/>
      <g>
        <path class="cls-2" d="M228.14,97.74l-16.29-16.26-16.31-16.29H65.19v81.39h32.6v-48.84h97.76v32.55H114.09l-16.31,16.29-16.29,16.29-16.31,16.29v48.84H195.55l16.31-16.29,16.29-16.29v-32.55l-16.29-16.29,16.29-16.29v-32.55Zm-32.6,97.67H97.79v-32.55h97.76v32.55Z"/>
        <polygon class="cls-2" points="423.69 146.58 407.4 162.86 423.69 179.15 423.69 227.99 391.09 227.99 391.09 179.15 293.33 179.15 293.33 227.99 260.74 227.99 260.74 195.44 277.05 179.15 293.33 162.86 309.62 146.58 391.09 146.58 391.09 97.74 293.33 97.74 293.33 162.86 260.74 162.86 260.74 65.19 391.09 65.19 407.4 81.48 423.69 97.74 423.69 146.58"/>
      </g>
      <g>
        <path class="cls-2" d="M554.33,93.44V32.59h31.29c4.06,0,7.56,.68,10.52,2.04,2.96,1.36,5.2,3.23,6.74,5.6,1.53,2.38,2.3,5.04,2.3,8,0,3.42-.93,6.19-2.78,8.3-1.85,2.12-4.11,3.55-6.78,4.3v.44c3.24,.64,6.01,2.16,8.3,4.56,2.29,2.41,3.43,5.67,3.43,9.78,0,3.36-.87,6.39-2.61,9.09-1.74,2.69-4.27,4.82-7.61,6.39-3.33,1.56-7.32,2.35-11.95,2.35h-30.86Zm29.56-36.94c2.55,0,4.49-.56,5.82-1.7,1.33-1.13,2-2.59,2-4.39s-.67-3.26-2-4.39c-1.33-1.13-3.27-1.69-5.82-1.69h-16.52v12.17h16.52Zm.44,25.21c2.09,0,3.85-.3,5.3-.91,1.45-.61,2.52-1.43,3.22-2.48,.69-1.04,1.04-2.23,1.04-3.56s-.35-2.52-1.04-3.57c-.7-1.04-1.77-1.87-3.22-2.48-1.45-.61-3.22-.91-5.3-.91h-16.95v13.91h16.95Z"/>
        <path class="cls-2" d="M616.04,93.44V32.59h45.64v12.17h-32.6v12.17h26.08v11.3h-26.08v13.04h32.6v12.17h-45.64Z"/>
        <path class="cls-2" d="M665.59,93.44l16.08-60.85h27.38l16.08,60.85h-13.47l-3.48-13.47h-25.64l-3.48,13.47h-13.47Zm19.99-25.64h19.56l-6.09-23.04h-7.39l-6.08,23.04Z"/>
        <path class="cls-2" d="M742.52,93.44V44.76h-19.56v-12.17h52.15v12.17h-19.56v48.68h-13.04Z"/>
        <path class="cls-2" d="M781.63,93.44V32.59h28.69c4.81,0,9.03,.9,12.65,2.7,3.62,1.8,6.4,4.26,8.34,7.39,1.94,3.13,2.91,6.58,2.91,10.35,0,4.52-1.28,8.36-3.82,11.52-2.55,3.16-5.91,5.55-10.08,7.17l13.91,21.73h-14.78l-12.6-19.99h-12.17v19.99h-13.04Zm28.25-32.16c3.59,0,6.3-.75,8.13-2.26s2.74-3.51,2.74-6-.91-4.49-2.74-6c-1.83-1.5-4.54-2.26-8.13-2.26h-15.21v16.52h15.21Z"/>
        <path class="cls-2" d="M842.92,93.44V32.59h13.04v60.85h-13.04Z"/>
        <path class="cls-2" d="M864.65,93.44v-12.17l32.16-35.64v-.87h-31.29v-12.17h48.24v12.17l-32.16,35.64v.87h33.03v12.17h-49.98Z"/>
        <path class="cls-2" d="M554.07,174.28v-47.16h20.21c3.5,0,6.56,.64,9.16,1.92,2.6,1.28,4.59,3.04,5.96,5.29,1.37,2.25,2.05,4.78,2.05,7.61,0,3.5-1.1,6.52-3.3,9.06-2.2,2.54-5.25,4.23-9.16,5.09l12.13,18.19h-7.07l-11.45-17.51h-12.46v17.51h-6.06Zm20.21-23.24c3.59,0,6.34-.82,8.25-2.46,1.91-1.64,2.86-3.85,2.86-6.64s-.95-5-2.86-6.64c-1.91-1.64-4.66-2.46-8.25-2.46h-14.15v18.19h14.15Z"/>
        <path class="cls-2" d="M613.35,174.95c-3.23,0-6.15-.75-8.76-2.26-2.61-1.5-4.66-3.59-6.16-6.26-1.5-2.67-2.26-5.67-2.26-8.99s.75-6.32,2.26-8.99c1.5-2.67,3.56-4.76,6.16-6.26,2.6-1.5,5.52-2.26,8.76-2.26s6.1,.75,8.72,2.26c2.63,1.5,4.69,3.57,6.2,6.2,1.5,2.63,2.26,5.54,2.26,8.72v2.02h-28.97c.22,2.06,.89,3.92,1.99,5.56,1.1,1.64,2.5,2.92,4.21,3.84,1.71,.92,3.57,1.38,5.59,1.38,2.65,0,4.93-.58,6.84-1.75,1.91-1.17,3.34-2.6,4.28-4.31h5.39c-1.21,3.1-3.22,5.73-6.03,7.88-2.81,2.16-6.3,3.23-10.48,3.23Zm11.45-20.54c-.22-1.71-.84-3.28-1.85-4.72-1.01-1.44-2.35-2.58-4.01-3.44-1.66-.85-3.52-1.28-5.59-1.28s-3.93,.43-5.59,1.28c-1.66,.86-3.01,2-4.04,3.44-1.03,1.44-1.71,3.01-2.02,4.72h23.11Zm-13.81-20.88l5.73-9.77h6.74v.07l-7.75,9.7h-4.72Z"/>
        <path class="cls-2" d="M637.94,174.28v-33.68h5.39v5.05h.07c1.03-1.62,2.53-2.98,4.48-4.08,1.95-1.1,4.25-1.65,6.91-1.65,4.09,0,7.35,1.29,9.8,3.87,2.45,2.58,3.67,6.12,3.67,10.61v19.87h-5.39v-19.54c0-3.28-.81-5.73-2.42-7.34-1.62-1.62-3.84-2.43-6.67-2.43-2.02,0-3.82,.46-5.39,1.38-1.57,.92-2.81,2.22-3.71,3.91-.9,1.69-1.35,3.63-1.35,5.83v18.19h-5.39Z"/>
        <path class="cls-2" d="M692.84,174.95c-3.32,0-6.32-.75-8.99-2.26-2.67-1.5-4.76-3.59-6.26-6.26-1.5-2.67-2.26-5.67-2.26-8.99s.75-6.32,2.26-8.99c1.5-2.67,3.59-4.76,6.26-6.26s5.67-2.26,8.99-2.26,6.32,.75,8.99,2.26c2.67,1.5,4.76,3.59,6.26,6.26,1.5,2.67,2.26,5.67,2.26,8.99s-.75,6.32-2.26,8.99c-1.5,2.67-3.59,4.76-6.26,6.26-2.67,1.5-5.67,2.26-8.99,2.26Zm0-5.05c2.33,0,4.42-.53,6.26-1.58,1.84-1.05,3.28-2.53,4.31-4.41,1.03-1.88,1.55-4.04,1.55-6.47s-.52-4.58-1.55-6.47c-1.03-1.89-2.47-3.36-4.31-4.41-1.84-1.05-3.93-1.58-6.26-1.58s-4.42,.53-6.26,1.58c-1.84,1.06-3.28,2.53-4.31,4.41-1.03,1.88-1.55,4.04-1.55,6.47s.52,4.58,1.55,6.47c1.03,1.89,2.47,3.36,4.31,4.41s3.93,1.58,6.26,1.58Z"/>
        <path class="cls-2" d="M723.83,174.28l-9.43-33.68h5.73l7.75,28.63h5.73l7.75-28.63h5.73l-9.43,33.68h-13.81Z"/>
        <path class="cls-2" d="M767.28,174.95c-2.92,0-5.61-.76-8.08-2.29-2.47-1.53-4.44-3.63-5.9-6.3-1.46-2.67-2.19-5.65-2.19-8.93s.73-6.25,2.19-8.93c1.46-2.67,3.43-4.77,5.9-6.3,2.47-1.53,5.16-2.29,8.08-2.29,2.6,0,4.79,.45,6.57,1.35,1.77,.9,3.13,1.88,4.08,2.93,.94,1.06,1.41,1.67,1.41,1.85h.07v-5.46h5.39v33.68h-5.39v-5.39h-.07c0,.18-.47,.79-1.41,1.82-.94,1.03-2.3,2-4.08,2.9-1.77,.9-3.96,1.35-6.57,1.35Zm.67-5.05c2.11,0,4.04-.53,5.79-1.58,1.75-1.05,3.13-2.53,4.14-4.41,1.01-1.88,1.52-4.04,1.52-6.47s-.51-4.58-1.52-6.47c-1.01-1.89-2.39-3.36-4.14-4.41-1.75-1.05-3.68-1.58-5.79-1.58s-4.04,.53-5.79,1.58c-1.75,1.06-3.13,2.53-4.14,4.41-1.01,1.88-1.52,4.04-1.52,6.47s.51,4.58,1.52,6.47c1.01,1.89,2.39,3.36,4.14,4.41,1.75,1.05,3.68,1.58,5.79,1.58Z"/>
        <path class="cls-2" d="M795.58,174.28v-28.63h-4.38v-5.05h4.38v-7.41h5.39v7.41h10.78v5.05h-10.78v23.58h11.12v5.05h-16.5Z"/>
        <path class="cls-2" d="M821.51,134.2c-.99,0-1.85-.37-2.59-1.11-.74-.74-1.11-1.61-1.11-2.6s.37-1.91,1.11-2.63c.74-.72,1.6-1.08,2.59-1.08s1.91,.36,2.63,1.08c.72,.72,1.08,1.6,1.08,2.63s-.36,1.85-1.08,2.6c-.72,.74-1.6,1.11-2.63,1.11Zm-2.7,40.08v-33.68h5.39v33.68h-5.39Z"/>
        <path class="cls-2" d="M849.13,174.95c-3.32,0-6.32-.75-8.99-2.26-2.67-1.5-4.76-3.59-6.26-6.26s-2.26-5.67-2.26-8.99,.75-6.32,2.26-8.99c1.5-2.67,3.59-4.76,6.26-6.26,2.67-1.5,5.67-2.26,8.99-2.26s6.32,.75,8.99,2.26c2.67,1.5,4.76,3.59,6.26,6.26,1.5,2.67,2.26,5.67,2.26,8.99s-.75,6.32-2.26,8.99c-1.5,2.67-3.59,4.76-6.26,6.26-2.67,1.5-5.67,2.26-8.99,2.26Zm0-5.05c2.33,0,4.42-.53,6.26-1.58,1.84-1.05,3.28-2.53,4.31-4.41,1.03-1.88,1.55-4.04,1.55-6.47s-.52-4.58-1.55-6.47c-1.03-1.89-2.47-3.36-4.31-4.41-1.84-1.05-3.93-1.58-6.26-1.58s-4.42,.53-6.26,1.58c-1.84,1.06-3.28,2.53-4.31,4.41-1.03,1.88-1.55,4.04-1.55,6.47s.52,4.58,1.55,6.47c1.03,1.89,2.47,3.36,4.31,4.41,1.84,1.05,3.93,1.58,6.26,1.58Z"/>
        <path class="cls-2" d="M874.05,174.28v-33.68h5.39v5.05h.07c1.03-1.62,2.53-2.98,4.48-4.08,1.95-1.1,4.25-1.65,6.91-1.65,4.09,0,7.35,1.29,9.8,3.87,2.45,2.58,3.67,6.12,3.67,10.61v19.87h-5.39v-19.54c0-3.28-.81-5.73-2.42-7.34-1.62-1.62-3.84-2.43-6.67-2.43-2.02,0-3.82,.46-5.39,1.38-1.57,.92-2.81,2.22-3.71,3.91-.9,1.69-1.35,3.63-1.35,5.83v18.19h-5.39Z"/>
        <path class="cls-2" d="M554.07,259.91v-47.16h6.06v47.16h-6.06Z"/>
        <path class="cls-2" d="M570.24,259.91v-33.68h5.39v5.05h.07c1.03-1.62,2.53-2.98,4.48-4.08,1.95-1.1,4.25-1.65,6.91-1.65,4.09,0,7.35,1.29,9.8,3.87,2.45,2.58,3.67,6.12,3.67,10.61v19.87h-5.39v-19.54c0-3.28-.81-5.73-2.42-7.34-1.62-1.62-3.84-2.43-6.67-2.43-2.02,0-3.82,.46-5.39,1.38-1.57,.92-2.81,2.22-3.71,3.91-.9,1.69-1.35,3.63-1.35,5.83v18.19h-5.39Z"/>
        <path class="cls-2" d="M623.79,260.58c-2.92,0-5.61-.76-8.08-2.29-2.47-1.53-4.44-3.63-5.9-6.3-1.46-2.67-2.19-5.65-2.19-8.93s.73-6.25,2.19-8.93c1.46-2.67,3.43-4.77,5.9-6.3,2.47-1.53,5.16-2.29,8.08-2.29,2.6,0,4.79,.45,6.57,1.35,1.77,.9,3.13,1.87,4.08,2.9,.94,1.04,1.41,1.64,1.41,1.82h.07v-18.86h5.39v47.16h-5.39v-5.39h-.07c0,.18-.47,.79-1.41,1.82-.94,1.03-2.3,2-4.08,2.9-1.77,.9-3.96,1.35-6.57,1.35Zm.67-5.05c2.11,0,4.04-.53,5.79-1.58,1.75-1.05,3.13-2.53,4.14-4.41,1.01-1.88,1.52-4.04,1.52-6.47s-.51-4.58-1.52-6.47c-1.01-1.89-2.39-3.36-4.14-4.41-1.75-1.05-3.68-1.58-5.79-1.58s-4.04,.53-5.79,1.58c-1.75,1.06-3.13,2.53-4.14,4.41-1.01,1.88-1.52,4.04-1.52,6.47s.51,4.58,1.52,6.47c1.01,1.89,2.39,3.36,4.14,4.41,1.75,1.05,3.68,1.58,5.79,1.58Z"/>
        <path class="cls-2" d="M664.21,260.58c-4.09,0-7.36-1.29-9.8-3.87-2.45-2.58-3.67-6.12-3.67-10.61v-19.87h5.39v19.54c0,3.23,.82,5.67,2.46,7.31,1.64,1.64,3.85,2.46,6.64,2.46,2.02,0,3.82-.46,5.39-1.38,1.57-.92,2.81-2.22,3.7-3.91,.9-1.69,1.35-3.63,1.35-5.83v-18.19h5.39v33.68h-5.39v-5.05h-.07c-1.03,1.62-2.53,2.98-4.48,4.08-1.95,1.1-4.26,1.65-6.91,1.65Z"/>
        <path class="cls-2" d="M703.62,260.58c-2.92,0-5.46-.53-7.61-1.58s-3.87-2.41-5.15-4.07-2.19-3.48-2.73-5.46h5.73c.67,1.71,1.84,3.14,3.5,4.31,1.66,1.17,3.75,1.75,6.26,1.75,2.87,0,5-.47,6.37-1.42,1.37-.94,2.05-2.16,2.05-3.64,0-.94-.37-1.72-1.11-2.32-.74-.61-1.68-1.1-2.83-1.48-1.15-.38-2.73-.8-4.75-1.25-2.83-.63-5.14-1.28-6.94-1.95-1.8-.67-3.35-1.68-4.65-3.03s-1.95-3.17-1.95-5.46c0-1.71,.49-3.28,1.48-4.72,.99-1.44,2.45-2.58,4.38-3.44s4.24-1.28,6.94-1.28c4.09,0,7.34,.98,9.77,2.93,2.43,1.95,4,4.35,4.72,7.18h-5.73c-.59-1.39-1.61-2.58-3.07-3.57-1.46-.99-3.36-1.48-5.69-1.48-1.57,0-2.92,.21-4.04,.64-1.12,.43-1.97,.98-2.53,1.65-.56,.67-.84,1.37-.84,2.09,0,.94,.37,1.72,1.11,2.32s1.69,1.1,2.83,1.48c1.15,.38,2.73,.8,4.75,1.25,2.83,.63,5.14,1.28,6.94,1.95,1.8,.67,3.34,1.69,4.65,3.03,1.3,1.35,1.95,3.17,1.95,5.46,0,1.84-.53,3.52-1.58,5.05-1.06,1.53-2.63,2.75-4.72,3.67-2.09,.92-4.59,1.38-7.51,1.38Z"/>
        <path class="cls-2" d="M726.19,259.91v-28.63h-4.38v-5.05h4.38v-7.41h5.39v7.41h10.78v5.05h-10.78v23.58h11.12v5.05h-16.5Z"/>
        <path class="cls-2" d="M749.43,259.91v-33.68h5.39v5.39h.07c.85-1.62,2.17-2.98,3.94-4.08,1.77-1.1,3.92-1.65,6.43-1.65h4.04v5.39h-4.04c-1.98,0-3.76,.45-5.36,1.35s-2.84,2.15-3.74,3.74c-.9,1.6-1.35,3.38-1.35,5.36v18.19h-5.39Z"/>
        <path class="cls-2" d="M777.72,219.82c-.99,0-1.85-.37-2.59-1.11-.74-.74-1.11-1.61-1.11-2.6s.37-1.91,1.11-2.63c.74-.72,1.6-1.08,2.59-1.08s1.91,.36,2.63,1.08c.72,.72,1.08,1.6,1.08,2.63s-.36,1.85-1.08,2.6c-.72,.74-1.6,1.11-2.63,1.11Zm-2.7,40.08v-33.68h5.39v33.68h-5.39Z"/>
        <path class="cls-2" d="M805,260.58c-3.23,0-6.15-.75-8.76-2.26-2.61-1.5-4.66-3.59-6.16-6.26-1.5-2.67-2.26-5.67-2.26-8.99s.75-6.32,2.26-8.99c1.5-2.67,3.56-4.76,6.16-6.26,2.6-1.5,5.52-2.26,8.76-2.26s6.1,.75,8.72,2.26c2.63,1.5,4.69,3.57,6.2,6.2,1.5,2.63,2.26,5.54,2.26,8.72v2.02h-28.97c.22,2.06,.89,3.92,1.99,5.56,1.1,1.64,2.5,2.92,4.21,3.84,1.71,.92,3.57,1.38,5.59,1.38,2.65,0,4.93-.58,6.84-1.75,1.91-1.17,3.34-2.6,4.28-4.31h5.39c-1.21,3.1-3.22,5.73-6.03,7.88-2.81,2.16-6.3,3.23-10.48,3.23Zm11.45-20.54c-.22-1.71-.84-3.28-1.85-4.72-1.01-1.44-2.35-2.58-4.01-3.44-1.66-.85-3.52-1.28-5.59-1.28s-3.93,.43-5.59,1.28c-1.66,.86-3.01,2-4.04,3.44-1.03,1.44-1.71,3.01-2.02,4.72h23.11Z"/>
        <path class="cls-2" d="M829.59,259.91v-47.16h5.39v42.1h7.75v5.05h-13.14Z"/>
        <path class="cls-2" d="M848.12,259.91v-47.16h5.39v42.1h7.75v5.05h-13.14Z"/>
        <path class="cls-2" d="M881.8,260.58c-3.23,0-6.15-.75-8.76-2.26-2.61-1.5-4.66-3.59-6.16-6.26-1.5-2.67-2.26-5.67-2.26-8.99s.75-6.32,2.26-8.99c1.5-2.67,3.56-4.76,6.16-6.26,2.6-1.5,5.52-2.26,8.76-2.26s6.1,.75,8.72,2.26c2.63,1.5,4.69,3.57,6.2,6.2,1.5,2.63,2.26,5.54,2.26,8.72v2.02h-28.97c.22,2.06,.89,3.92,1.99,5.56,1.1,1.64,2.5,2.92,4.21,3.84,1.71,.92,3.57,1.38,5.59,1.38,2.65,0,4.93-.58,6.84-1.75,1.91-1.17,3.34-2.6,4.28-4.31h5.39c-1.21,3.1-3.22,5.73-6.03,7.88-2.81,2.16-6.3,3.23-10.48,3.23Zm11.45-20.54c-.22-1.71-.84-3.28-1.85-4.72-1.01-1.44-2.35-2.58-4.01-3.44-1.66-.85-3.52-1.28-5.59-1.28s-3.93,.43-5.59,1.28c-1.66,.86-3.01,2-4.04,3.44-1.03,1.44-1.71,3.01-2.02,4.72h23.11Z"/>
      </g>
    </g>
  </g>
</svg>